<?xml version="1.0" encoding="utf-8"?>
<!-- Generator: Adobe Illustrator 19.1.0, SVG Export Plug-In . SVG Version: 6.00 Build 0)  -->
<svg version="1.1" id="Capa_1" xmlns="http://www.w3.org/2000/svg" xmlns:xlink="http://www.w3.org/1999/xlink" x="0px" y="0px"
	 viewBox="0 0 566 242.8" style="enable-background:new 0 0 566 242.8;" xml:space="preserve">
<style type="text/css">
	.st0{clip-path:url(#SVGID_2_);fill:#006633;}
	.st1{clip-path:url(#SVGID_2_);}
</style>
<g>
	<defs>
		<rect id="SVGID_1_" x="116.8" y="33.2" width="333.1" height="178.3"/>
	</defs>
	<clipPath id="SVGID_2_">
		<use xlink:href="#SVGID_1_"  style="overflow:visible;"/>
	</clipPath>
	<path class="st0" d="M384.6,75.1c-11.5-1-22.9-2.4-34.4-3.8c1.1-0.4,2.2-0.7,3.2-1.1c4.1-0.7,8.3-1.3,12.4-2
		c2.4-0.4,4.8-0.8,7.1-1.3C373.1,67.2,381.1,72.3,384.6,75.1 M343.3,78.3c-4.9-1.5-9.8-3-14.8-4.1c0.2-0.1,5.9-1.1,8.6-1.5
		c0.1,0.2,0.1,0.3,0.3,0.4C339.1,75.1,341.2,76.8,343.3,78.3 M310.9,70.4c2.1-1.9,4.2-3.9,6.1-5.9c4.1-2.1,8.1-4.4,12-6.8
		C323.6,62.6,317.6,66.9,310.9,70.4 M307.3,69.3c-0.5,0.4-1.9,1.9-1.9,2.3c-1.3,0.1-2.6,0.3-3.9,0.4
		C303.4,71.1,305.4,70.2,307.3,69.3 M298.6,77.1c1.8-0.1,3.6-0.2,5.4-0.4c2.1,1.3,4.1,2.6,6.1,3.9C306.2,79.6,302.4,78.5,298.6,77.1
		 M298.1,85.6c-6.5-2.3-12.8-5.2-19.3-7.6c2-0.1,7.6,0,7.7,0C290.4,80.4,294.3,83,298.1,85.6 M248,67.6c-1.3,1.7-2.7,3.4-4.3,5
		c-0.2,0.1-0.2,0.3-0.3,0.5c-1.1,0-2.3,0-3.4-0.1C242.7,71.3,245.4,69.5,248,67.6 M232.4,72.7c-1.8-0.1-3.6-0.2-5.4-0.3
		c4.9-3.6,9.8-7.2,14.7-10.6C239,65.7,235.8,69.3,232.4,72.7 M222,84.1c-2.6-2.9-5.5-5.4-8.8-7.5c1.2,0.1,2.3,0.1,3.5,0.2
		c0.2,0.2,3.3,1.2,3.6,1.3C220.3,78.3,221.5,82.7,222,84.1 M198.3,62.8c-2.4,2.5-4.9,4.9-7.2,7.5c-1.6-0.1-3.2-0.2-4.7-0.3
		c4-3.3,8-6.5,11.8-9.9C198.2,61,198.3,61.9,198.3,62.8 M185.4,74.8c0.8,1,3.8,4.7,4.6,5.7c-1.1-1-4.3-4.7-5.4-5.7
		C184.8,74.7,185.1,74.8,185.4,74.8 M190.4,84.7c-5.2-3.5-10.4-7.1-15.6-10.6c0.4,0.2,3.6,0.2,4.9,0.3
		C183.1,77.9,186.8,81.2,190.4,84.7 M176.1,69.2c-2.7-0.2-5.4-0.5-8.1-0.7c4.7-3.2,9.4-6.4,14.3-9.4
		C180.5,62.7,178.6,66.1,176.1,69.2 M195.3,70.6c0.7-0.7,1.4-1.4,2.1-2.2c-0.2,0.8-0.6,1.5-0.9,2.2
		C196.1,70.6,195.7,70.6,195.3,70.6 M421.3,45.6c-6,4-12.4,7.6-18.6,11.3c-1.5,0.2-3,0.5-4.5,0.7c5.8-3.4,11.7-6.8,16.2-11.9
		c1.4-1.6-0.9-3.9-2.3-2.3c-6.2,7-14.9,10.6-22.5,15.7c-1,0.2-2.1,0.4-3.1,0.5c7.7-6.1,13.3-14.8,17.8-23.7c1-1.9-1.9-3.5-2.8-1.7
		c-3.7,7.3-8.2,14.6-14.1,20.2c3.3-5.2,6.1-10.6,7.8-16.5c0.6-2-2.6-2.9-3.2-0.9c-2.4,8.6-7.4,15.9-12.3,23.2
		c-0.5,0.3-1,0.6-1.5,0.8c-0.9,0.2-1.8,0.3-2.7,0.5c-1.7,0.3-3.4,0.6-5.1,0.8c3.1-1.7,6.2-3.5,9.2-5.4c1.8-1.1,0.1-4-1.7-2.8
		c-5.9,3.7-11.9,7.1-18.2,9.9c6.8-3.8,13.4-7.8,18.8-13.5c1.5-1.5-0.9-3.9-2.3-2.3c-7.3,7.7-17,12.3-26.1,17.5
		c-1.7,0.3-3.4,0.5-5.1,0.8c12.9-8.9,26.1-17.4,37.5-28.2c1.5-1.5-0.8-3.8-2.3-2.3c-8.3,7.8-17.5,14.4-26.8,20.8
		c3.7-4.7,6.7-9.9,8.4-15.6c0.6-2-2.6-2.9-3.2-0.9c-2.9,9.9-10,17.9-17.5,24.9c-1.2,0.8-2.3,1.6-3.5,2.4c-1.3,0.2-2.6,0.4-3.9,0.6
		c4.3-5.2,8.2-10.7,13-15.4c1.5-1.5-0.8-3.8-2.3-2.3c-5.8,5.7-10.4,12.3-15.7,18.4c-3.7,0.5-7.4,0.9-11.1,1.4
		c12.1-7.5,21.7-18,31.2-28.7c1.4-1.6-0.9-3.9-2.3-2.3c-2.5,2.8-5,5.6-7.6,8.4c-0.4-0.2-0.9-0.2-1.4,0.2c-4.6,3.5-9.5,6.6-14.5,9.5
		c1.3-1.7,2.5-3.4,3.6-5.3c1.1-1.8-1.7-3.5-2.8-1.7c-2.6,4.2-5.7,8-9,11.5c-6.2,3.2-12.7,6.1-19.2,8.8c0.3-0.3,0.5-0.7,0.8-1
		c6.1-4.6,11.9-9.5,16.3-15.8c1.2-1.7-1.6-3.4-2.8-1.7c-2.4,3.4-5.2,6.3-8.3,9.1c4.2-8.3,6.8-17.4,11.2-25.7
		c0.9-1.8-1.9-3.4-2.8-1.6c-5.8,10.9-8.4,23.5-15.9,33.3c-2.4,1.8-4.8,3.5-7.2,5.2c-0.1,0.1-0.2,0.2-0.3,0.3
		c-5.4,0.2-10.8,0.4-16.2,0.5c8.6-5.3,17.2-10.6,23.5-18.7c1.3-1.6-1-4-2.3-2.3c-6.2,8.1-14.8,13.2-23.3,18.5
		c0.5-0.6,1.1-1.2,1.5-1.9c1.1-1.5,2-3.2,2.7-5c0.6-1.4,1.4-5.6,0.2-6.3c-1.2-0.7-2.2,1.6-2.3,2c-0.5,2.1-1.2,4-2.3,5.9
		c-2,3.4-4.9,6.1-8.4,7.9c-2.8,0-5.7-0.1-8.5-0.2c7.1-4.7,14.2-9.5,18.8-16.9c1.1-1.8-1.7-3.4-2.8-1.7c-4.2,6.7-10.7,11.2-17.3,15.5
		c2.2-2.9,4.1-5.9,5.8-9.1c6.1-5.6,11.7-11.8,17.2-18c1.4-1.6-0.9-3.9-2.3-2.3c-3.5,3.9-7,7.8-10.6,11.6c0.1-1.6-2.2-2.7-3-1
		c-1.2,2.6-2.5,5.1-3.8,7.6c-4,3.6-8.2,6.8-12.7,9.7c3.4-4,6.4-8.2,8.7-13c0.9-1.9-1.9-3.6-2.8-1.7c-0.2,0.5-0.5,0.9-0.7,1.3
		c-0.1,0-0.2,0-0.3,0.1c-8.2,5.2-15.9,11-23.7,16.8c-0.9,0-1.7-0.1-2.6-0.1c4.1-2.2,8.1-4.4,11.7-7.3c1.6-1.3-0.7-3.6-2.3-2.3
		c-4.6,3.8-10.1,6.2-15.2,9.1c-0.1,0.1-0.2,0.2-0.3,0.3c-0.9-0.1-1.9-0.1-2.8-0.1c5.3-5.2,10.5-10.6,15.5-16.1
		c1.4-1.6-0.9-3.9-2.3-2.3c-3.5,3.8-7,7.5-10.6,11.2c1.5-3,2.8-6,3.9-9.2c0.7-2-2.5-2.9-3.2-0.9c-2.1,6.1-4.9,11.7-8.6,16.9
		c-1.7-0.1-3.4-0.2-5-0.3c0.9-2.1,1.3-4.4,1.5-6.6c5.4-5.4,10.8-10.7,15.7-16.6c1.3-1.6-1-3.9-2.3-2.3c-4.2,5.1-8.8,9.7-13.5,14.3
		c-0.1-0.8-0.2-1.5-0.3-2.3c1-0.9,2-1.8,3-2.8c1.5-1.5-0.8-3.8-2.3-2.3c-1,1.1-2.2,2-3.2,3c-0.2,0.1-0.3,0.3-0.5,0.4
		c-5.3,4.8-11,9.2-16.4,13.9c-0.5,0-1.1-0.1-1.6-0.1c2.7-3.8,4.8-8,6.8-12.2c0.1-0.3,0.2-0.6,0.1-0.9c1-0.6,2-1.2,3-1.7
		c1.9-1,0.2-3.8-1.7-2.8c-9,4.8-17.2,10.5-25.5,16.2c-8.8-0.7-17.6-1.4-26.3-2.2c-3.2-0.3-3.1,4.6,0,4.9c7.2,0.7,14.4,1.3,21.6,1.9
		c0,0.2,0.1,0.4,0.3,0.7c2.1,2.7,4.1,5.5,5.9,8.3c1.1,1.8,4,0.1,2.8-1.7c-1.5-2.4-3.2-4.7-4.9-7c0.6,0,1.2,0.1,1.7,0.1
		c0,0.4,10.8,12.4,15.2,18.6c1.2,1.7,4.1,0.1,2.8-1.7c-3.8-5.3-7.5-10.7-12.1-15.2c9.6,6.1,18.8,13.1,28.7,18.7c1,1.4,2,2.8,2.9,4.3
		c1,1.7,3.5,0.4,3-1.3c2.1,1,4.2,1.9,6.5,2.8c2,0.7,2.8-2.4,0.9-3.2c-3.8-1.4-7.5-3.2-11-5.1c-1-1.3-2.1-2.6-3.2-3.8
		c0.1-0.4,0.1-0.7-0.1-1.1c-2.1-3.9-4.8-7.5-7.6-11c2.2,0.2,4.4,0.3,6.7,0.5c6.2,3.6,10.2,9.7,15.5,14.4c5.8,5.2,13.1,8.7,17.7,15.1
		c1.2,1.7,4.1,0.1,2.8-1.7c-4.9-6.7-12.2-10.3-18.2-15.8c-4.1-3.7-7.5-8.1-11.7-11.7c0.4,0,5.3,0.3,6.4,0.4c-0.3,0.7-0.2,1.5,0.7,2
		c4.7,2.6,8.7,6.1,11.9,10.5c0.6,0.8,1.7,0.8,2.4,0.4c0.8,2.2,1.6,4.3,2.4,6.5c0.7,2,3.9,1.1,3.2-0.9c-1.7-4.7-3.4-9.3-5.4-13.9
		c1.9,0.8,3.7,1.6,5.5,2.5c1.7,1.6,3,3.5,3.6,5.8c0.5,2,3.7,1.2,3.2-0.9c-0.1-0.5-0.3-1-0.5-1.5c5.3,3,10.4,6.3,15.8,8.9
		c1.9,0.9,3.6-1.9,1.7-2.8c-7.4-3.7-14.4-8.3-21.8-12.1c-1.5-1.4-3.2-2.5-5.1-3.5c3.3,0.2,6.7,0.3,10,0.5c4.9,2.1,9.7,4.4,14.5,6.7
		c9.1,8,16,19.5,29,21.4c2.1,0.3,3-2.8,0.9-3.2c-9.2-1.4-15.4-7.8-21.6-14.2c7.9,3.8,15.8,7.5,24.2,10.1c2,0.6,2.9-2.5,0.9-3.2
		c-5.8-1.8-11.3-4.1-16.8-6.6c3,0.7,6.1,1.1,9.2,1.2c2.1,0,2.1-3.3,0-3.3c-9.5-0.1-18.7-4.2-27.6-7.7c-0.4-0.3-0.8-0.7-1.2-0.9
		c6.7,0.2,13.4,0.2,20.1,0.2c10.5,2.2,20,7.6,30.2,11c1.4,0.5,2.4-0.9,2.2-1.9c9.3,6.4,18.6,12.7,29.2,16.6c2,0.7,2.8-2.4,0.9-3.2
		c-13.6-5.1-25.1-14.2-37.1-22.2c7.7,3.3,15.8,5.3,23.9,7.3c3,2.3,5.9,4.6,8.9,7c1.6,1.3,4-1,2.3-2.3c-1.6-1.4-3.3-2.6-5-4
		c0.8-0.8,0.7-2.4-0.7-2.7c-1.4-0.3-2.7-0.7-4.1-1c-3.1-2.3-6.2-4.5-9.4-6.6c2.7-0.3,5.5-0.6,8.2-1c4.6,2.2,8.4,6.8,9.9,11.3
		c0.7,2,3.8,1.1,3.2-0.9c-0.5-1.5-1.3-3.1-2.2-4.5c11.8,7.3,23,15.4,35.7,21.1c1.9,0.9,3.6-2,1.7-2.8c-13-5.8-24.5-14.2-36.5-21.6
		c8.6,2.1,16.8,5.3,25.5,7c0.2,0,0.5,0,0.7,0c5.7,2.4,11.5,4.7,16.6,8c1.8,1.2,3.4-1.7,1.7-2.8c-0.5-0.3-1-0.6-1.6-0.9
		c2.5-0.3,5-0.7,7.4-1c2.1-0.3,1.2-3.5-0.9-3.2c-3.1,0.4-6.2,0.9-9.2,1.3c-0.6,0.1-0.9,0.4-1.1,0.9c-8.4-4.2-18-6.8-25.2-12.7
		c0.1-0.1,0.3-0.2,0.4-0.3c4.8,0.5,9.6,1.1,14.5,1.7c0.1,0.5,0.4,0.9,1,1.1c8.1,2.7,16.1,5.5,24.3,7.8c2,0.6,2.9-2.6,0.9-3.2
		c-4.7-1.3-9.3-2.8-13.9-4.3c6.1,0.7,12.2,1.3,18.3,1.7c2.4,2.4,4.6,5.2,6.2,8.3c1,1.9,3.8,0.2,2.8-1.7c-1.2-2.3-2.7-4.4-4.4-6.4
		c3.6,0.2,7.3,0.3,11,0.4c2.1,0,2.1-3.3,0-3.3c-4.8,0-9.5-0.2-14.3-0.6c-3.8-3.6-8.2-6.6-12.6-9.4c0.6-0.1,1.1-0.2,1.7-0.3
		c8,2.7,16.1,5.4,24.4,7.3c2.1,0.5,2.9-2.7,0.9-3.2c-6.3-1.4-12.4-3.3-18.5-5.3c2.6-0.5,5.1-0.9,7.7-1.4c5.7,2.2,10.7,5.6,14.9,10
		c1.5,1.5,3.8-0.8,2.3-2.3c-3.4-3.5-7.2-6.3-11.5-8.6c5.3-0.8,10.7-1.5,16-1.9c3.1-0.2,3.2-5.2,0-4.9c-1.5,0.1-3,0.3-4.5,0.4
		c4.1-2.4,8.2-4.9,12.2-7.5C424.7,47.3,423.1,44.4,421.3,45.6"/>
	<path class="st1" d="M434.6,89.9l-9.7,15.8h10.5L450,89.9H434.6z M425.4,210.4H441v-99.4h-15.6V210.4z M398.1,210.4h16v-99.4h-13.9
		v59.5l-16-59.5h-19.6v99.4h14.1v-72L398.1,210.4z M329.4,128.6l7.5,50.3h-15.1L329.4,128.6z M341.6,110.9h-22.9l-15.9,99.4h14.3
		l2.7-18h19.2l2.7,18h15.8L341.6,110.9z M251.7,110.9H230v99.4h13.6v-70.3l11.6,70.3h14.8l10.8-71.3v71.3h14.8v-99.4h-21.7
		l-10.6,70.6L251.7,110.9z M172.6,186.5c0,15.9,8.4,25,23.7,25s23.7-9.1,23.7-25v-51.7c0-15.9-8.4-25-23.7-25s-23.7,9.1-23.7,25
		V186.5z M188.3,133.8c0-7.1,3.1-9.8,8.1-9.8c5,0,8.1,2.7,8.1,9.8v53.7c0,7.1-3.1,9.8-8.1,9.8c-5,0-8.1-2.7-8.1-9.8V133.8z
		 M140,125.2c5.5,0,8,3.1,8,10.2v9.8c0,8-3.5,10.5-9.4,10.5h-6.1v-30.5H140z M165.4,210.4c-1.6-3.7-1.7-7.2-1.7-12.1v-15.3
		c0-10.4-2.6-17.9-10.4-21.2c7-3.3,10.2-9.9,10.2-20.2v-7.8c0-15.3-7-22.9-23.1-22.9h-23.6v99.4h15.6v-40.5h5.4
		c7.1,0,10.2,3.4,10.2,12.6v15.6c0,8.1,0.6,9.7,1.4,12.2H165.4z"/>
</g>
</svg>
